<?xml version="1.0" encoding="UTF-8"?><svg id="Layer_1" xmlns="http://www.w3.org/2000/svg" width="3467.01" height="3379.25" viewBox="0 0 3467.01 3379.25"><path d="M1111.41,644.34c2.16-1,11.8,1.55,14.01.6,17.34,1.08,34.62,3.28,51.65,6.7,3.72.79,7.55,1.54,10.94,3.39,22.47,12.41,39.45,34.07,46.68,58.65-11.89-2.98-23.19-7.83-34.97-11.19-15.02-4.57-30.33-8.11-45.73-11.07-7.29-17.51-27.47-35.82-42.59-47.07Z" fill="#ddaf4e"/><path d="M1039.18,685.92c.67-27.61-4.56-44.47,3.14-47.69,5.99-2.51,21.9,1.72,32.85,2.67,14.15,1.22,45.57,33.26,53.48,45.17-11.45.92-22.85-.98-34.28-1.03-19.93-.15-35.31-.47-55.19.89Z" fill="#ddaf4e"/><path d="M1231.77,666.6c24.63,7.8,48.26,18.64,70.6,31.56,9.25,10.78,12.64,25.47,14.97,39.18.9,6.91.98,13.89.8,20.85-20.14-11.55-39.75-24.22-61.02-33.67l-.33-.15c-3.06-21.03-11.74-41.17-25.02-57.76Z" fill="#ddaf4e"/><path d="M1333.89,717.45c18.98,12.89,37.08,27.06,54.16,42.35,1.67,1.56,3.41,3.23,4.18,5.47,6.58,18.11,8.02,37.91,5.21,56.93-17.93-15.35-35.06-31.66-54.21-45.51-2.69-2.15-6.22-4.26-6.08-8.17,2.03-17.07.25-34.33-3.26-51.07Z" fill="#ddaf4e"/><path d="M1417.81,788.19c17.54,18.29,34.43,37.28,49.64,57.57-10.4,5.75-20.37,12.23-30.18,18.93-7.55-8.89-15.28-17.62-23.67-25.71,4.52-16.53,5.26-33.79,4.21-50.79Z" fill="#ddaf4e"/><path d="M1039.18,685.92c19.88-1.36,35.26-1.04,55.19-.89,11.43.05,22.83,1.95,34.28,1.03,6.91,9.86,10.91,21.37,13.95,32.92-11.73-.57-23.17-1.37-34.89-1.65-9.58-.34-19.09-1.2-28.92-1.26-11.32.01-21.71.91-33.16,1.38-7.09.24-1.7-26.25-6.45-31.53Z" fill="#c27e31"/><path d="M1154,691.41c15.39,2.96,30.71,6.5,45.73,11.07,11.78,3.36,23.08,8.21,34.97,11.19,3.29,10.6,4.27,21.72,5.39,32.72-8.65-1.77-16.48-5.96-24.78-8.75-17.18-6.19-34.88-10.89-52.72-14.79-1.97-10.69-4.26-21.42-8.58-31.44Z" fill="#c27e31"/><path d="M1257.13,724.51c21.27,9.45,40.88,22.13,61.02,33.67.18-6.96.1-13.94-.8-20.85,2.6,18,.87,36.34-2.75,54.06-17.44-13.46-36.37-24.88-55.95-34.95.2-10.68-.38-21.34-1.52-31.94Z" fill="#c27e31"/><path d="M1331.78,804.29c2.41-11.82,4.67-23.7,5.37-35.77-.15,3.91,3.39,6.03,6.08,8.17,19.15,13.86,36.28,30.17,54.21,45.51-2.36,11.82-5.86,23.42-10.91,34.39-16.67-19.01-35.29-36.21-54.75-52.31Z" fill="#c27e31"/><path d="M1413.6,838.97c8.39,8.09,16.12,16.82,23.67,25.71-8.94,6.09-17.31,12.95-25.79,19.64-4.68-2.78-7.35-7.63-10.66-11.74,4.5-11.1,9.38-22.09,12.79-33.61Z" fill="#c27e31"/><path d="M1594.62,835.09c12.92-1.36,26.94-1.97,39.04,3.24,34.69,59.91,69.18,119.98,103.96,179.86-11.68,5.55-23.52,10.73-35.2,16.26-32.03-52.54-63.2-105.62-95.04-158.27-46.86,7.16-91.91,24.96-131.51,50.92-32.87,21.31-61.5,48.67-86.06,79.1-3.95-6.68-7.75-13.41-11.61-20.13,5.67-22.58,20.64-41.3,36.52-57.71,32.12-31.4,71.05-55.18,111.96-73.32,21.7-9.37,44.53-16.38,67.93-19.95Z" fill="#666"/><path d="M2195.5,954.4c42.37-.21,84.82-1.11,127.11,2.21,37.14,2.51,74.26,6.03,111.01,12.07,36.57,6.17,73.06,12.95,109.03,22.08,105.77,27.3,207.75,69.56,301.22,126.16,92.6,56.16,177.07,125.24,252.33,203.02,70.93,73.67,134.21,155.11,184.77,244.12,48.92,85.9,86.51,178.32,110.76,274.18,28.78,110.89,40.47,225.88,37.95,340.33-3.57,161.68-37.75,323.44-106.13,470.31-24.7,52.69-53.28,103.57-85.57,151.97-86.33,128.55-196.38,240.95-322.43,330.81-94.47,66.79-198.81,120.1-309.29,154.75-83.03,26.42-169.05,43.15-255.82,50.84-106.06,9.14-213.3,5.81-318.43-11.17-95.04-15.41-188.31-42.24-276.5-80.97-97.69-42.61-188.54-100.25-270.67-168.05-79.59-65.9-151.69-140.96-213.83-223.55-59.47-79.05-109.06-165.64-145.78-257.55-23.22-57.71-41.76-117.35-54.96-178.14-7.52-37.21-14.64-74.53-19.08-112.25-9.5-78.5-10.79-157.81-6.81-236.74,2-34.98,5.14-69.92,10.19-104.6,11.3-73.98,27.65-147.38,52.92-217.9,20.13-55.72,43.37-110.45,71.98-162.38,12.23-21.47,23.99-43.22,37.42-63.97,28.28-43.66,58.58-86.11,92.03-125.99,36.34-43.58,75.68-84.62,117.1-123.39,18.98-17.69,38.13-35.24,58.48-51.38,42.68-35.59,88.05-67.92,135.03-97.56,29.5-17.16,58.96-34.44,89.52-49.62,43.58-21.06,88.36-39.73,134.05-55.68,32.94-11.17,66.41-20.77,100.15-29.18,31.74-7.24,63.76-13.28,95.89-18.57,37.14-6.45,74.8-9.32,112.37-12.18,14.63-1.11,29.32-1.65,44.01-1.98ZM2519.84,1037.13c4.31,3.64,8.93,6.93,13.45,10.33,16.72,12.63,32.31,27.89,41.3,47.1,9.14,19.24,8.12,41.6,3.82,61.97-4.77,22.24-19.11,41.37-37.24,54.68-25.53,18.79-55.96,29.02-85.8,38.7-66.07,19.9-134.54,29.86-202.62,40.04-62.09,8.68-123.5,21.9-184.05,38.09-53.83,14.49-106.81,32.13-158.5,53.05-54.49,21.98-108.3,45.92-159.47,74.89-87.83,48.84-168.92,109.78-240.24,180.6-39.44,39.37-75.63,81.84-111.17,124.72-18.23,21.55-35.72,43.76-55.31,64.12-18.77,19.78-39.22,38.62-63.64,51.16-29.84,15.15-65.08,17.54-97.43,10.2-15.38-3.46-28.1-14.43-36.31-27.56-6.13-9.09-8.88-19.77-12.33-30-.85,1.7-1.75,3.39-2.31,5.27-8.97,31.79-15.79,64.17-21.36,96.73-13.71,76.14-19.46,153.62-18.77,230.96,1.38,139.26,25.07,279.12,76.91,408.72,38.45,97.82,92.14,189.41,156.9,272.13,61.1,77.97,131.56,148.63,209.03,210.39,82.56,65.4,174.14,119.64,271.95,158.88,94.04,37.44,193.24,61.94,293.91,72.55,107.52,12.04,216.54,9.35,323.47-6.98,44.25-6.45,87.91-16.59,130.99-28.63,47.27-13.5,93.96-29.35,138.93-49.25,63.84-28.55,125.57-62.15,182.97-102.18,47.9-33.18,93.19-70.08,135.98-109.62,35.02-32.07,67.59-66.72,98.56-102.7,41.19-48.18,79.04-99.35,111.56-153.77,8.11-14.05,17.51-27.55,23.47-42.7,14.02-23.03,24.65-47.94,37.39-71.68,13.48-26.68,24.78-54.5,33.25-83.18,5.08-16.79,10.58-33.49,14.89-50.49,4.63-10.47,6.52-21.85,9.83-32.76,6.6-24.55,12.43-49.31,17.31-74.26,20.75-109.86,25.97-222.55,16.77-333.94-8.24-102.7-30.63-204.24-66.49-300.84-53.67-143.6-139.47-274.37-246.22-384.12-107.81-112.33-236.31-206.24-380.19-266.79-52.8-22.31-107.22-41.12-163.17-53.85ZM1694.21,1193.29c-24.06,3.01-47.71,9.12-70.31,17.87-43.2,17.02-82.51,42.6-118.88,71.19-40.91,32.64-77.09,72.81-98.67,120.93-8.19,18.02-14.46,38.01-11.35,57.98,2.36,15.9,11.5,30.48,24.52,39.85,10.81,8.09,24.26,11.68,37.5,13.17,19.33,1.93,38.78-.72,57.73-4.52,48.81-10.42,94.12-33.26,135.2-61.17,43.3-29.45,82.82-65.58,111.73-109.53,14.51-22.04,26.47-46.36,30.84-72.59,2.85-17.18-1.05-35.62-11.6-49.59-8.66-11.25-21.7-18.59-35.38-21.83-16.79-3.98-34.28-3.7-51.33-1.75ZM1401.09,1569.94c-20.75,4.52-40.09,14.05-57.8,25.58-24.81,16.61-47.04,37.13-65.2,60.84-14.89,19.72-27.12,42.19-31.2,66.8-2.13,12.86.54,27.71,11.05,36.37,9.66,9.12,23.94,10.2,36.49,8.4,26.17-4.03,50.46-16.18,71.75-31.59,19.19-13.84,36.46-30.27,51.87-48.18,17.95-21.72,32.76-47.02,37.59-75.09,2.36-14.43-2.57-31.07-15.31-39.26-11.73-6.99-26.29-6.35-39.24-3.88Z" fill="#666"/><path d="M1475.88,927.1c39.6-25.96,84.66-43.76,131.51-50.92,31.84,52.65,63,105.73,95.04,158.27-27.91,14.36-55.86,28.69-82.95,44.6-20.65,11.78-40.42,25.01-60.25,38.09-25.5,17-50.41,34.87-74.55,53.75-31.61-54.9-63.56-109.62-94.86-164.69,24.57-30.43,53.19-57.8,86.06-79.1Z" fill="#333"/><path d="M2519.84,1037.13c55.95,12.73,110.37,31.54,163.17,53.85,143.88,60.55,272.38,154.46,380.19,266.79,106.75,109.75,192.55,240.52,246.22,384.12,35.87,96.59,58.26,198.14,66.49,300.84,9.2,111.38,3.98,224.08-16.77,333.94-4.88,24.94-10.71,49.71-17.31,74.26-3.31,10.91-5.19,22.29-9.83,32.76,2.05-34.59,4.65-69.88-3.47-103.95-7.35-31.9-21.14-62.33-40.75-88.59-11.14-14.56-25.11-27.22-41.66-35.28-26.74-13.58-58.19-14.74-87.21-9.22-30.33,6.35-59.12,18.57-86.2,33.46-42.83,22.58-80.59,53.16-118.98,82.33-41.66,30.66-84.59,59.75-129.81,84.97-43.78,24.48-88.54,47.4-135.05,66.26-25.75,10.32-51.79,19.83-78.17,28.35-57.39,19.82-116.89,32.66-176.62,43.01-53.78,8.63-108.34,13.35-162.81,12-68.64-1.24-136.88-10.5-204.2-23.55-132-26.94-259.83-71.86-382.56-127.01-80.81-37.1-162.92-72.81-249.46-94.37-33.84-8.47-68.31-15.26-103.26-16.36-21.29.11-42.79-.95-63.74,3.59-27.51,4.77-54.16,17.25-73.21,37.98-19.49,21.57-30.36,49.76-34.54,78.24-4.91,29.02-1.06,58.7,5.27,87.18,12.87,54.68,39.78,104.72,69.2,152.11,32.89,52.16,71.54,100.36,111.09,147.58,21.34,24.01,42.63,48.05,64.38,71.7,36.36,36.75,72.18,74.21,112.12,107.17,84.51,72.5,179.74,132.67,282.09,176.63,100.25,42.75,206.93,70.13,315.19,82.3,60.35,6.27,121.13,9.45,181.79,6.78,35.46-2.19,71.05-4.06,106.11-9.99,46.22-5.67,91.76-16,136.56-28.61,45.84-13.36,90.99-29.28,134.56-48.89,127.24-57.57,242.27-140.39,341.23-238.6,21.08-20.98,42.02-42.06,61.73-64.33,21.98-23.45,42.43-48.23,63.45-72.52,28.02-33.48,54.52-68.25,79.23-104.24,7.24-10.38,12.82-22.03,22.19-30.77-5.96,15.15-15.36,28.64-23.47,42.7-32.53,54.42-70.37,105.59-111.56,153.77-30.97,35.98-63.54,70.64-98.56,102.7-42.79,39.54-88.08,76.43-135.98,109.62-57.4,40.03-119.13,73.63-182.97,102.18-44.97,19.9-91.67,35.75-138.93,49.25-43.07,12.04-86.74,22.18-130.99,28.63-106.93,16.33-215.95,19.01-323.47,6.98-100.67-10.61-199.87-35.11-293.91-72.55-97.81-39.24-189.39-93.48-271.95-158.88-77.47-61.76-147.92-132.41-209.03-210.39-64.76-82.72-118.44-174.31-156.9-272.13-51.83-129.6-75.53-269.46-76.91-408.72-.69-77.33,5.06-154.82,18.77-230.96,5.57-32.56,12.38-64.94,21.36-96.73.56-1.88,1.46-3.57,2.31-5.27,3.46,10.24,6.21,20.91,12.33,30,8.21,13.13,20.93,24.11,36.31,27.56,32.35,7.34,67.59,4.95,97.43-10.2,24.42-12.55,44.87-31.38,63.64-51.16,19.59-20.36,37.08-42.57,55.31-64.12,35.54-42.88,71.73-85.34,111.17-124.72,71.32-70.82,152.41-131.76,240.24-180.6,51.16-28.97,104.98-52.92,159.47-74.89,51.69-20.91,104.67-38.55,158.5-53.05,60.55-16.2,121.96-29.41,184.05-38.09,68.08-10.19,136.56-20.14,202.62-40.04,29.84-9.68,60.27-19.92,85.8-38.7,18.13-13.31,32.48-32.44,37.24-54.68,4.31-20.37,5.32-42.73-3.82-61.97-8.99-19.21-24.58-34.47-41.3-47.1-4.52-3.41-9.14-6.7-13.45-10.33Z" fill="#333"/><path d="M1694.21,1193.29c17.05-1.95,34.54-2.23,51.33,1.75,13.68,3.24,26.71,10.58,35.38,21.83,10.55,13.97,14.44,32.41,11.6,49.59-4.37,26.22-16.33,50.54-30.84,72.59-28.91,43.96-68.43,80.09-111.73,109.53-41.08,27.91-86.39,50.75-135.2,61.17-18.95,3.8-38.41,6.45-57.73,4.52-13.25-1.49-26.7-5.08-37.5-13.17-13.02-9.37-22.16-23.94-24.52-39.85-3.11-19.96,3.16-39.96,11.35-57.98,21.59-48.12,57.76-88.29,98.67-120.93,36.37-28.6,75.68-54.18,118.88-71.19,22.6-8.75,46.25-14.85,70.31-17.87Z" fill="#999"/><path d="M1401.09,1569.94c12.95-2.47,27.51-3.11,39.24,3.88,12.74,8.19,17.67,24.83,15.31,39.26-4.83,28.07-19.64,53.37-37.59,75.09-15.41,17.92-32.67,34.34-51.87,48.18-21.29,15.41-45.58,27.56-71.75,31.59-12.55,1.8-26.83.72-36.49-8.4-10.51-8.66-13.18-23.52-11.05-36.37,4.08-24.62,16.31-47.09,31.2-66.8,18.16-23.71,40.39-44.24,65.2-60.84,17.7-11.53,37.05-21.06,57.8-25.58Z" fill="#999"/><path d="M3158.91,2246.64c29.02-5.52,60.47-4.36,87.21,9.22,16.56,8.06,30.53,20.72,41.66,35.28,19.6,26.25,33.39,56.68,40.75,88.59,8.12,34.07,5.52,69.36,3.47,103.95-4.31,17-9.81,33.71-14.89,50.49-8.47,28.68-19.77,56.5-33.25,83.18-12.74,23.75-23.37,48.66-37.39,71.68-9.37,8.75-14.95,20.39-22.19,30.77-24.71,36-51.21,70.77-79.23,104.24-21.01,24.29-41.47,49.07-63.45,72.52-19.7,22.27-40.65,43.35-61.73,64.33-98.95,98.22-213.99,181.04-341.23,238.6-43.56,19.6-88.72,35.52-134.56,48.89-44.79,12.61-90.34,22.94-136.56,28.61-35.06,5.93-70.65,7.8-106.11,9.99-60.66,2.67-121.44-.51-181.79-6.78-108.26-12.17-214.94-39.55-315.19-82.3-102.34-43.96-197.58-104.13-282.09-176.63-39.94-32.97-75.76-70.42-112.12-107.17-21.75-23.65-43.04-47.69-64.38-71.7-39.55-47.22-78.2-95.42-111.09-147.58-29.41-47.4-56.32-97.43-69.2-152.11-6.34-28.48-10.19-58.16-5.27-87.18,4.18-28.48,15.05-56.67,34.54-78.24,19.05-20.73,45.69-33.21,73.21-37.98,20.95-4.54,42.45-3.47,63.74-3.59,34.95,1.1,69.42,7.89,103.26,16.36,86.54,21.55,168.66,57.27,249.46,94.37,122.73,55.14,250.56,100.07,382.56,127.01,67.31,13.05,135.56,22.31,204.2,23.55,54.47,1.34,109.03-3.37,162.81-12,59.73-10.35,119.23-23.19,176.62-43.01,26.38-8.52,52.42-18.03,78.17-28.35,46.51-18.87,91.27-41.78,135.05-66.26,45.22-25.22,88.14-54.31,129.81-84.97,38.39-29.17,76.16-59.75,118.98-82.33,27.07-14.89,55.86-27.1,86.2-33.46Z" fill="#252525"/><path d="M3462.55,2039.39c-4.29-51.13-10.78-102.15-21.34-152.38-20.46-98.61-52.98-194.88-98.43-284.81-45.46-91.55-103.67-176.5-170.52-253.72-64.9-74.81-137.96-142.53-217.36-201.71-85.15-62.56-178.48-114.22-277.26-151.85-131.95-50.15-272.97-75.12-413.96-77.24-41.5.07-83.07-.66-124.47,2.98-107.98,7.09-215.1,28.33-317.27,64.1-17.26,5.54-33.74,13.23-50.95,18.93-34.67-60.68-69.64-121.21-104.67-181.68-9.79-12.02-25.63-17.25-40.45-19.8-16.67-1.74-33.62-1.29-50.2,1.29-25.19,4.65-49.97,12.04-73.01,23.34-41.81-54.78-90.45-105.24-148.35-143.12-50.07-33.41-100.21-45.95-159.44-56.65-45.61-8.24-115.59-12.26-157.81-12.99-5.97-.1-12.03-.65-16.99,2.16.18,4.12-2.08,112.79,1.73,114.35.37,4.32,64.11,8.76,66.82,9.01,53.98,5.01,94.58,16.12,178.76,60.18,46.57,24.38,83.26,71.61,114.64,113.43-20.28,23.42-38.14,52.39-36.62,84.52-.39,5.62,3.47,10.06,5.99,14.72,35.03,60.66,69.85,121.44,105.01,182.02-19.29,16.07-38.06,32.74-56.32,49.95-43.96,41.81-86.23,85.47-124.76,132.35-36.28,42.79-67.95,89.24-97.71,136.72-42.11,69.39-77.61,142.88-104.59,219.46-45.64,128.55-66.77,265.1-67.82,401.32-.64,24.6.85,49.18,1.02,73.78,2.65,53.82,7.63,107.57,16.77,160.7,20.44,120.85,59.3,238.8,117.05,347.01,25.65,48.85,54.59,96.02,86.87,140.78,58.55,80.51,126.14,154.42,200.71,220.34,77.65,68.44,163.35,128.06,255.8,174.78,45.66,23.24,92.75,43.84,141.32,60.19,51.92,18.2,105.09,32.79,159.06,43.4,104.52,20.06,211.47,27.69,317.77,22.29,85.52-4.45,170.88-15.92,253.77-37.75,69.79-18.33,138.29-42.12,203.34-73.49,48.25-22.8,94.81-49.08,139.57-78.12,46.07-30.15,89.81-63.77,131.91-99.25,76.57-64.63,144.71-138.91,204.36-219.33,34.97-46.18,65.38-95.65,93.07-146.48,24.53-46.64,47.41-94.32,65.02-144.07,27.12-74.11,47.3-150.84,59.14-228.89,15.39-102.75,19.41-207.23,10.79-310.8ZM1215.3,737.65c-17.18-6.19-34.88-10.89-52.72-14.79-1.97-10.69-4.26-21.42-8.58-31.44-7.29-17.51-20.01-32.28-35.13-43.53-7.21,3.32-18.28,8.35-18.28,8.35,0,0,20.14,17.92,28.05,29.83,6.91,9.86,10.91,21.37,13.95,32.92-37.35-3.02-56.64-5.2-96.89-2.04.29-22.91-2.14-38.65-3.4-78.71,0,0,0,0,0,0,5.13.32,17.51,1.32,32.85,2.67,4.55,1.75,9.93,4.27,15.59,7.93,3.83,2.47,7.1,5.02,9.84,7.42,6.09-2.78,12.18-5.57,18.28-8.35l-5.79-3.52c28.27,2.7,55.79,5.62,63.99,7.27,3.72.79,7.55,1.54,10.94,3.39,22.47,12.41,39.45,34.07,46.68,58.65,3.29,10.6,4.27,21.72,5.39,32.72-8.65-1.77-16.48-5.96-24.78-8.75ZM1314.6,791.4c-17.44-13.46-36.37-24.88-55.95-34.95.2-10.68-.38-21.34-1.52-31.94l-.33-.15c-3.06-21.03-11.74-41.17-25.02-57.76,24.63,7.8,48.26,18.64,70.6,31.56,9.25,10.78,12.64,25.47,14.97,39.18,2.6,18,.87,36.34-2.75,54.06ZM1413.6,838.97c4.52-16.53,5.26-33.79,4.21-50.79,17.54,18.29,34.43,37.28,49.64,57.57-10.4,5.75-20.37,12.23-30.18,18.93-8.94,6.09-17.31,12.95-25.79,19.64-4.68-2.78-7.35-7.63-10.66-11.74,4.5-11.1,9.38-22.09,12.79-33.61ZM1331.78,804.29c2.41-11.82,4.67-23.7,5.37-35.77,2.03-17.07.25-34.33-3.26-51.07,18.98,12.89,37.08,27.06,54.16,42.35,1.67,1.56,3.41,3.23,4.18,5.47,6.58,18.11,8.03,37.91,5.21,56.93-2.36,11.82-5.86,23.42-10.91,34.39-16.67-19.01-35.29-36.21-54.75-52.31ZM1389.82,1006.21c-3.95-6.68-7.75-13.41-11.61-20.13,5.67-22.58,20.64-41.3,36.52-57.71,32.12-31.4,71.05-55.18,111.96-73.32,21.7-9.37,44.53-16.38,67.93-19.95,12.92-1.36,26.94-1.97,39.04,3.24,34.69,59.91,69.18,119.98,103.96,179.86-11.68,5.55-23.52,10.73-35.2,16.26-27.91,14.36-55.86,28.69-82.95,44.6-20.65,11.78-40.42,25.01-60.25,38.09-25.5,17-50.41,34.87-74.55,53.75-31.61-54.9-63.56-109.62-94.86-164.69ZM3429.66,2178.56c-3.57,161.68-37.75,323.44-106.13,470.31-24.7,52.69-53.28,103.57-85.57,151.97-86.33,128.55-196.38,240.95-322.43,330.81-94.47,66.79-198.81,120.1-309.29,154.75-83.03,26.42-169.05,43.15-255.82,50.84-106.06,9.14-213.3,5.81-318.43-11.17-95.04-15.41-188.31-42.24-276.5-80.97-97.69-42.61-188.54-100.25-270.67-168.05-79.6-65.9-151.69-140.96-213.83-223.55-59.47-79.05-109.06-165.64-145.78-257.55-23.22-57.71-41.76-117.35-54.96-178.14-7.52-37.21-14.64-74.53-19.08-112.25-9.5-78.5-10.79-157.81-6.81-236.74,2-34.98,5.14-69.92,10.19-104.6,11.3-73.98,27.65-147.38,52.92-217.9,20.13-55.72,43.37-110.45,71.98-162.38,12.23-21.47,23.99-43.22,37.42-63.97,28.28-43.66,58.58-86.11,92.03-125.99,36.34-43.58,75.68-84.62,117.1-123.39,18.98-17.69,38.13-35.24,58.48-51.38,42.68-35.59,88.05-67.92,135.03-97.56,29.5-17.16,58.96-34.44,89.52-49.62,43.58-21.06,88.36-39.73,134.05-55.68,32.94-11.17,66.41-20.77,100.15-29.18,31.74-7.24,63.76-13.28,95.89-18.57,37.14-6.45,74.8-9.32,112.37-12.19,14.63-1.11,29.32-1.65,44.01-1.98,42.37-.21,84.82-1.11,127.11,2.21,37.14,2.51,74.26,6.03,111.01,12.07,36.57,6.17,73.06,12.95,109.03,22.08,105.77,27.3,207.75,69.56,301.22,126.16,92.6,56.16,177.07,125.24,252.33,203.02,70.93,73.67,134.21,155.11,184.77,244.12,48.92,85.9,86.51,178.32,110.76,274.18,28.78,110.89,40.47,225.88,37.95,340.33Z"/></svg>